<svg xmlns="http://www.w3.org/2000/svg" viewBox="0 0 48 48">
  <defs>
    <linearGradient id="docker-bg" x1="0%" y1="0%" x2="100%" y2="100%">
      <stop offset="0%" stop-color="#0b1728"/>
      <stop offset="100%" stop-color="#08101f"/>
    </linearGradient>
    <linearGradient id="docker-blue" x1="0%" y1="0%" x2="100%" y2="100%">
      <stop offset="0%" stop-color="#23a6f2"/>
      <stop offset="100%" stop-color="#0078d7"/>
    </linearGradient>
  </defs>
  <rect width="48" height="48" rx="14" fill="url(#docker-bg)"/>
  <g fill="none" stroke="url(#docker-blue)" stroke-width="2.6" stroke-linejoin="round">
    <path d="M18 15h5v5h-5z"/>
    <path d="M24 15h5v5h-5z"/>
    <path d="M18 21h5v5h-5z"/>
    <path d="M24 21h5v5h-5z"/>
    <path d="M30 21h5v5h-5z"/>
  </g>
  <path d="M12.5 28h23c0 4.7-3.8 8.5-8.5 8.5H20c-4.1 0-6.6-2.6-7.5-6.2" fill="url(#docker-blue)" opacity="0.18"/>
  <path d="M12.5 28c-.3 4 2.7 7.5 7.5 7.5h7c3.6 0 6.6-2.9 6.6-6.5V28h4c-.7-1.7-2.5-2.7-4.7-2.7-.9 0-1.5.1-2.1.3-.6-1.4-2-2.2-3.5-2.2H24" fill="none" stroke="url(#docker-blue)" stroke-width="2.4" stroke-linecap="round"/>
</svg>
