<svg xmlns="http://www.w3.org/2000/svg" viewBox="0 0 48 48">
  <defs>
    <linearGradient id="java-bg" x1="0%" y1="0%" x2="100%" y2="100%">
      <stop offset="0%" stop-color="#0d1c3b"/>
      <stop offset="100%" stop-color="#071021"/>
    </linearGradient>
    <linearGradient id="java-accent" x1="0%" y1="0%" x2="100%" y2="0%">
      <stop offset="0%" stop-color="#ff7a59"/>
      <stop offset="100%" stop-color="#ffb347"/>
    </linearGradient>
  </defs>
  <rect width="48" height="48" rx="14" fill="url(#java-bg)"/>
  <path d="M17 32c1.4 2.4 5.1 3.5 7 3.5s5.6-1.1 7-3.5c-.9 0-2.1.4-3.2.7-1.2.3-2.4.5-3.8.5s-2.6-.2-3.8-.5c-1.1-.3-2.3-.7-3.2-.7Z" fill="#6ee7ff" opacity="0.55"/>
  <path d="M24 16c2.2 0 3.6 1 3.6 2 0 1.3-1.1 1.9-2.7 2.9-1.3.8-2.3 1.5-2.3 2.7 0 .9.8 1.8 2.8 1.8 1 0 2.3-.2 3.6-.7l.4 1.2c-1.5.6-3 .9-4.4.9-3.2 0-4.9-1.5-4.9-3.2 0-1.7 1.3-2.6 2.8-3.5 1.3-.8 2.2-1.4 2.2-2.3 0-.6-.6-1.1-1.9-1.1-1.2 0-2.5.4-3.8 1l-.5-1.2c1.6-.7 3.1-1.1 4.9-1.1Zm9.2 7.6c1.1 0 2.5.8 2.5 2.4 0 2.3-1.8 4.6-4.8 4.6h-1.5l-.2-1.4h1.6c1.7 0 2.8-1.4 2.8-3 0-.7-.3-1.1-1-1.1-.4 0-.8.1-1.2.2l-.6-1.4c.9-.2 1.5-.3 2.4-.3Z" fill="url(#java-accent)"/>
</svg>
