<svg xmlns="http://www.w3.org/2000/svg" viewBox="0 0 48 48">
  <defs>
    <linearGradient id="spring-bg" x1="0%" y1="0%" x2="100%" y2="100%">
      <stop offset="0%" stop-color="#0b1f16"/>
      <stop offset="100%" stop-color="#07130d"/>
    </linearGradient>
    <linearGradient id="spring-leaf" x1="0%" y1="0%" x2="100%" y2="0%">
      <stop offset="0%" stop-color="#8fff9f"/>
      <stop offset="100%" stop-color="#35ff9b"/>
    </linearGradient>
  </defs>
  <rect width="48" height="48" rx="14" fill="url(#spring-bg)"/>
  <path d="M32.8 14c-6.3 3.1-11.4 6-14.6 10.5-2.7 3.7-3.7 8-2.4 12.3 5.9.8 11.1-1.6 14.2-5.4 2-2.5 3-5.1 3.8-7.6h-6.6l-.5-1.6h8.8c.2-.8.4-1.7.6-2.7.4-2.4.5-4-.3-5.5Zm-14.7 18.6c-.6-2.4-.3-4.7 1-6.8 2.4-3.7 6.5-6.6 10.3-8.6-.1 1.9-.7 4.7-2.6 7.2-2 2.8-5.2 5.3-8.7 8.2Z" fill="url(#spring-leaf)"/>
</svg>
